<?xml version="1.0" standalone="no"?>
<!DOCTYPE svg PUBLIC "-//W3C//DTD SVG 20010904//EN"
 "http://www.w3.org/TR/2001/REC-SVG-20010904/DTD/svg10.dtd">
<svg version="1.0" xmlns="http://www.w3.org/2000/svg"
 width="45.000000pt" height="45.000000pt" viewBox="0 0 45.000000 45.000000"
 preserveAspectRatio="xMidYMid meet">

<g transform="translate(0.000000,45.000000) scale(0.100000,-0.100000)"
fill="#000000" stroke="none">
<path d="M0 225 l0 -225 225 0 225 0 0 225 0 225 -225 0 -225 0 0 -225z m314
95 c14 -22 26 -42 26 -45 0 -3 -23 -5 -51 -5 -46 0 -50 2 -44 20 5 17 2 20
-25 20 -43 0 -90 -47 -90 -90 0 -64 34 -99 97 -100 34 0 46 5 67 31 15 18 26
43 26 61 0 19 4 28 13 25 17 -6 10 -67 -12 -97 -10 -14 -36 -31 -58 -39 -35
-13 -46 -13 -78 0 -50 18 -80 59 -80 108 0 76 47 121 125 121 27 0 43 5 46 15
8 20 8 20 38 -25z"/>
</g>
</svg>
